<mxfile host="65bd71144e">
    <diagram id="coEIKMqH1GfD0kxIsy-6" name="Sida-1">
        <mxGraphModel dx="1870" dy="717" grid="1" gridSize="10" guides="1" tooltips="1" connect="1" arrows="1" fold="1" page="1" pageScale="1" pageWidth="827" pageHeight="1169" math="0" shadow="0">
            <root>
                <mxCell id="0"/>
                <mxCell id="1" parent="0"/>
                <mxCell id="Ye9BJwzS4szIkedIpYZC-20" value="24-bit vector" style="edgeStyle=orthogonalEdgeStyle;rounded=0;orthogonalLoop=1;jettySize=auto;html=1;exitX=1;exitY=0.5;exitDx=0;exitDy=0;entryX=0;entryY=0.5;entryDx=0;entryDy=0;" parent="1" source="Ye9BJwzS4szIkedIpYZC-5" target="Ye9BJwzS4szIkedIpYZC-15" edge="1">
                    <mxGeometry relative="1" as="geometry">
                        <mxPoint as="offset"/>
                    </mxGeometry>
                </mxCell>
                <mxCell id="Ye9BJwzS4szIkedIpYZC-5" value="sample_0" style="rounded=0;whiteSpace=wrap;html=1;" parent="1" vertex="1">
                    <mxGeometry x="110" y="120" width="120" height="60" as="geometry"/>
                </mxCell>
                <mxCell id="Ye9BJwzS4szIkedIpYZC-7" value="sample_1" style="rounded=0;whiteSpace=wrap;html=1;" parent="1" vertex="1">
                    <mxGeometry x="110" y="210" width="120" height="60" as="geometry"/>
                </mxCell>
                <mxCell id="7" value="" style="edgeStyle=none;html=1;fontColor=none;" parent="1" source="Ye9BJwzS4szIkedIpYZC-8" target="Ye9BJwzS4szIkedIpYZC-17" edge="1">
                    <mxGeometry relative="1" as="geometry"/>
                </mxCell>
                <mxCell id="Ye9BJwzS4szIkedIpYZC-8" value="..." style="rounded=0;whiteSpace=wrap;html=1;" parent="1" vertex="1">
                    <mxGeometry x="110" y="300" width="120" height="60" as="geometry"/>
                </mxCell>
                <mxCell id="Ye9BJwzS4szIkedIpYZC-9" value="sample_15" style="rounded=0;whiteSpace=wrap;html=1;" parent="1" vertex="1">
                    <mxGeometry x="110" y="390" width="120" height="60" as="geometry"/>
                </mxCell>
                <mxCell id="Ye9BJwzS4szIkedIpYZC-32" value="32 bit * 16&amp;nbsp;" style="edgeStyle=orthogonalEdgeStyle;rounded=0;orthogonalLoop=1;jettySize=auto;html=1;exitX=1;exitY=0.5;exitDx=0;exitDy=0;entryX=0;entryY=0.091;entryDx=0;entryDy=0;entryPerimeter=0;" parent="1" source="Ye9BJwzS4szIkedIpYZC-15" target="Ye9BJwzS4szIkedIpYZC-28" edge="1">
                    <mxGeometry relative="1" as="geometry">
                        <mxPoint x="550" y="150" as="targetPoint"/>
                    </mxGeometry>
                </mxCell>
                <mxCell id="Ye9BJwzS4szIkedIpYZC-15" value="collector_0" style="rounded=0;whiteSpace=wrap;html=1;" parent="1" vertex="1">
                    <mxGeometry x="330" y="120" width="120" height="60" as="geometry"/>
                </mxCell>
                <mxCell id="Ye9BJwzS4szIkedIpYZC-16" value="collector_1" style="rounded=0;whiteSpace=wrap;html=1;" parent="1" vertex="1">
                    <mxGeometry x="330" y="210" width="120" height="60" as="geometry"/>
                </mxCell>
                <mxCell id="Ye9BJwzS4szIkedIpYZC-17" value="..." style="rounded=0;whiteSpace=wrap;html=1;" parent="1" vertex="1">
                    <mxGeometry x="330" y="300" width="120" height="60" as="geometry"/>
                </mxCell>
                <mxCell id="Ye9BJwzS4szIkedIpYZC-18" value="collector_15" style="rounded=0;whiteSpace=wrap;html=1;" parent="1" vertex="1">
                    <mxGeometry x="330" y="390" width="120" height="60" as="geometry"/>
                </mxCell>
                <mxCell id="Ye9BJwzS4szIkedIpYZC-24" value="24-bit vector" style="edgeStyle=orthogonalEdgeStyle;rounded=0;orthogonalLoop=1;jettySize=auto;html=1;exitX=1;exitY=0.5;exitDx=0;exitDy=0;entryX=0;entryY=0.5;entryDx=0;entryDy=0;" parent="1" edge="1">
                    <mxGeometry relative="1" as="geometry">
                        <mxPoint x="230" y="239.5" as="sourcePoint"/>
                        <mxPoint x="330" y="239.5" as="targetPoint"/>
                        <mxPoint as="offset"/>
                        <Array as="points">
                            <mxPoint x="300" y="240"/>
                            <mxPoint x="300" y="240"/>
                        </Array>
                    </mxGeometry>
                </mxCell>
                <mxCell id="Ye9BJwzS4szIkedIpYZC-26" value="24-bit vector" style="edgeStyle=orthogonalEdgeStyle;rounded=0;orthogonalLoop=1;jettySize=auto;html=1;exitX=1;exitY=0.5;exitDx=0;exitDy=0;entryX=0;entryY=0.5;entryDx=0;entryDy=0;" parent="1" edge="1">
                    <mxGeometry relative="1" as="geometry">
                        <mxPoint x="230" y="419.5" as="sourcePoint"/>
                        <mxPoint x="330" y="419.5" as="targetPoint"/>
                        <mxPoint as="offset"/>
                        <Array as="points">
                            <mxPoint x="250" y="419.5"/>
                            <mxPoint x="250" y="419.5"/>
                        </Array>
                    </mxGeometry>
                </mxCell>
                <mxCell id="Ye9BJwzS4szIkedIpYZC-28" value="&lt;font style=&quot;font-size: 21px;&quot;&gt;full_sample&lt;/font&gt;" style="rounded=0;whiteSpace=wrap;html=1;" parent="1" vertex="1">
                    <mxGeometry x="560" y="120" width="140" height="330" as="geometry"/>
                </mxCell>
                <mxCell id="Ye9BJwzS4szIkedIpYZC-39" value="32 bit * 16&amp;nbsp;" style="edgeStyle=orthogonalEdgeStyle;rounded=0;orthogonalLoop=1;jettySize=auto;html=1;exitX=1;exitY=0.5;exitDx=0;exitDy=0;entryX=-0.02;entryY=0.361;entryDx=0;entryDy=0;entryPerimeter=0;" parent="1" target="Ye9BJwzS4szIkedIpYZC-28" edge="1">
                    <mxGeometry relative="1" as="geometry">
                        <mxPoint x="440" y="239.5" as="sourcePoint"/>
                        <mxPoint x="632" y="239.52999999999997" as="targetPoint"/>
                    </mxGeometry>
                </mxCell>
                <mxCell id="Ye9BJwzS4szIkedIpYZC-41" value="32 bit * 16&amp;nbsp;" style="edgeStyle=orthogonalEdgeStyle;rounded=0;orthogonalLoop=1;jettySize=auto;html=1;exitX=1;exitY=0.5;exitDx=0;exitDy=0;entryX=-0.02;entryY=0.912;entryDx=0;entryDy=0;entryPerimeter=0;" parent="1" target="Ye9BJwzS4szIkedIpYZC-28" edge="1">
                    <mxGeometry relative="1" as="geometry">
                        <mxPoint x="448" y="419.5" as="sourcePoint"/>
                        <mxPoint x="640" y="419.53" as="targetPoint"/>
                    </mxGeometry>
                </mxCell>
                <mxCell id="Ye9BJwzS4szIkedIpYZC-53" value="chain_0" style="rounded=0;whiteSpace=wrap;html=1;" parent="1" vertex="1">
                    <mxGeometry x="-210" y="105" width="210" height="90" as="geometry"/>
                </mxCell>
                <mxCell id="Ye9BJwzS4szIkedIpYZC-54" value="chain_1" style="rounded=0;whiteSpace=wrap;html=1;" parent="1" vertex="1">
                    <mxGeometry x="-210" y="195" width="210" height="90" as="geometry"/>
                </mxCell>
                <mxCell id="Ye9BJwzS4szIkedIpYZC-55" value="..." style="rounded=0;whiteSpace=wrap;html=1;" parent="1" vertex="1">
                    <mxGeometry x="-210" y="280" width="210" height="90" as="geometry"/>
                </mxCell>
                <mxCell id="Ye9BJwzS4szIkedIpYZC-56" value="chain_15" style="rounded=0;whiteSpace=wrap;html=1;" parent="1" vertex="1">
                    <mxGeometry x="-210" y="370" width="210" height="90" as="geometry"/>
                </mxCell>
                <mxCell id="Ye9BJwzS4szIkedIpYZC-58" value="24-bit TDM" style="edgeStyle=orthogonalEdgeStyle;rounded=0;orthogonalLoop=1;jettySize=auto;html=1;exitX=1;exitY=0.5;exitDx=0;exitDy=0;entryX=0;entryY=0.5;entryDx=0;entryDy=0;" parent="1" target="Ye9BJwzS4szIkedIpYZC-5" edge="1">
                    <mxGeometry relative="1" as="geometry">
                        <mxPoint y="149.5" as="sourcePoint"/>
                        <mxPoint x="100" y="149.5" as="targetPoint"/>
                        <mxPoint as="offset"/>
                        <Array as="points"/>
                    </mxGeometry>
                </mxCell>
                <mxCell id="Ye9BJwzS4szIkedIpYZC-59" value="24-bit TDM" style="edgeStyle=orthogonalEdgeStyle;rounded=0;orthogonalLoop=1;jettySize=auto;html=1;exitX=1;exitY=0.5;exitDx=0;exitDy=0;" parent="1" source="Ye9BJwzS4szIkedIpYZC-54" edge="1">
                    <mxGeometry relative="1" as="geometry">
                        <mxPoint x="40" y="240" as="sourcePoint"/>
                        <mxPoint x="110" y="241" as="targetPoint"/>
                        <mxPoint as="offset"/>
                        <Array as="points"/>
                    </mxGeometry>
                </mxCell>
                <mxCell id="Ye9BJwzS4szIkedIpYZC-65" value="24-bit TDM" style="edgeStyle=orthogonalEdgeStyle;rounded=0;orthogonalLoop=1;jettySize=auto;html=1;exitX=1;exitY=0.5;exitDx=0;exitDy=0;entryX=0;entryY=0.5;entryDx=0;entryDy=0;" parent="1" source="Ye9BJwzS4szIkedIpYZC-56" target="Ye9BJwzS4szIkedIpYZC-9" edge="1">
                    <mxGeometry relative="1" as="geometry">
                        <mxPoint x="20" y="410" as="sourcePoint"/>
                        <mxPoint x="130" y="410.5" as="targetPoint"/>
                        <mxPoint as="offset"/>
                        <Array as="points">
                            <mxPoint y="420"/>
                        </Array>
                    </mxGeometry>
                </mxCell>
                <mxCell id="Ye9BJwzS4szIkedIpYZC-88" style="edgeStyle=orthogonalEdgeStyle;rounded=0;orthogonalLoop=1;jettySize=auto;html=1;exitX=1;exitY=0.5;exitDx=0;exitDy=0;fontSize=18;entryX=0.25;entryY=0;entryDx=0;entryDy=0;" parent="1" target="2" edge="1">
                    <mxGeometry relative="1" as="geometry">
                        <mxPoint x="739.3" y="145" as="sourcePoint"/>
                        <mxPoint x="849.3" y="230" as="targetPoint"/>
                    </mxGeometry>
                </mxCell>
                <mxCell id="Ye9BJwzS4szIkedIpYZC-66" value="Fifo_0" style="rounded=0;whiteSpace=wrap;html=1;" parent="1" vertex="1">
                    <mxGeometry x="739.3" y="120" width="80" height="50" as="geometry"/>
                </mxCell>
                <mxCell id="Ye9BJwzS4szIkedIpYZC-67" value="&lt;font style=&quot;font-size: 18px;&quot;&gt;Microphone array&lt;/font&gt;" style="text;html=1;strokeColor=none;fillColor=none;align=center;verticalAlign=middle;whiteSpace=wrap;rounded=0;" parent="1" vertex="1">
                    <mxGeometry x="-200" y="60" width="180" height="45" as="geometry"/>
                </mxCell>
                <mxCell id="Ye9BJwzS4szIkedIpYZC-70" value="" style="endArrow=none;dashed=1;html=1;dashPattern=1 3;strokeWidth=2;rounded=0;fontSize=18;" parent="1" edge="1">
                    <mxGeometry width="50" height="50" relative="1" as="geometry">
                        <mxPoint x="778.8" y="390" as="sourcePoint"/>
                        <mxPoint x="778.8" y="170" as="targetPoint"/>
                    </mxGeometry>
                </mxCell>
                <mxCell id="Ye9BJwzS4szIkedIpYZC-87" style="edgeStyle=orthogonalEdgeStyle;rounded=0;orthogonalLoop=1;jettySize=auto;html=1;exitX=1;exitY=0.5;exitDx=0;exitDy=0;fontSize=18;entryX=0.25;entryY=1;entryDx=0;entryDy=0;" parent="1" target="2" edge="1">
                    <mxGeometry relative="1" as="geometry">
                        <mxPoint x="749.3" y="415" as="sourcePoint"/>
                        <mxPoint x="849.3" y="320" as="targetPoint"/>
                        <Array as="points">
                            <mxPoint x="842.3" y="415"/>
                            <mxPoint x="842.3" y="340"/>
                        </Array>
                    </mxGeometry>
                </mxCell>
                <mxCell id="Ye9BJwzS4szIkedIpYZC-73" value="Fifo_255" style="rounded=0;whiteSpace=wrap;html=1;" parent="1" vertex="1">
                    <mxGeometry x="749.3" y="390" width="80" height="50" as="geometry"/>
                </mxCell>
                <mxCell id="Ye9BJwzS4szIkedIpYZC-79" value="" style="endArrow=classic;html=1;rounded=0;fontSize=18;entryX=0;entryY=0.5;entryDx=0;entryDy=0;" parent="1" target="Ye9BJwzS4szIkedIpYZC-66" edge="1">
                    <mxGeometry width="50" height="50" relative="1" as="geometry">
                        <mxPoint x="700" y="145" as="sourcePoint"/>
                        <mxPoint x="819.3" y="150" as="targetPoint"/>
                    </mxGeometry>
                </mxCell>
                <mxCell id="Ye9BJwzS4szIkedIpYZC-80" value="" style="endArrow=classic;html=1;rounded=0;fontSize=18;entryX=0;entryY=0.5;entryDx=0;entryDy=0;" parent="1" target="Ye9BJwzS4szIkedIpYZC-73" edge="1">
                    <mxGeometry width="50" height="50" relative="1" as="geometry">
                        <mxPoint x="699.3" y="415" as="sourcePoint"/>
                        <mxPoint x="749.3" y="419.50000000000006" as="targetPoint"/>
                    </mxGeometry>
                </mxCell>
                <mxCell id="Ye9BJwzS4szIkedIpYZC-84" value="AXI4-Full" style="rounded=0;whiteSpace=wrap;html=1;fontSize=18;" parent="1" vertex="1">
                    <mxGeometry x="959.3" y="220" width="170" height="95" as="geometry"/>
                </mxCell>
                <mxCell id="Ye9BJwzS4szIkedIpYZC-89" value="" style="shape=flexArrow;endArrow=classic;html=1;rounded=0;fontSize=21;" parent="1" edge="1">
                    <mxGeometry width="50" height="50" relative="1" as="geometry">
                        <mxPoint x="1129.3" y="270" as="sourcePoint"/>
                        <mxPoint x="1189.3" y="270" as="targetPoint"/>
                        <Array as="points">
                            <mxPoint x="1159.3" y="270"/>
                        </Array>
                    </mxGeometry>
                </mxCell>
                <mxCell id="Ye9BJwzS4szIkedIpYZC-90" value="&lt;h1&gt;PS&lt;/h1&gt;" style="text;html=1;strokeColor=none;fillColor=none;spacing=5;spacingTop=-20;whiteSpace=wrap;overflow=hidden;rounded=0;fontSize=21;" parent="1" vertex="1">
                    <mxGeometry x="1199.3" y="227.5" width="100" height="72.5" as="geometry"/>
                </mxCell>
                <mxCell id="2" value="MUX" style="rounded=0;whiteSpace=wrap;html=1;fontSize=18;" parent="1" vertex="1">
                    <mxGeometry x="819.3" y="242.5" width="90" height="72.5" as="geometry"/>
                </mxCell>
                <mxCell id="3" value="" style="endArrow=classic;html=1;rounded=0;fontSize=18;entryX=-0.012;entryY=0.611;entryDx=0;entryDy=0;entryPerimeter=0;" parent="1" target="Ye9BJwzS4szIkedIpYZC-84" edge="1">
                    <mxGeometry width="50" height="50" relative="1" as="geometry">
                        <mxPoint x="909.3" y="278.25" as="sourcePoint"/>
                        <mxPoint x="959.3" y="278.25" as="targetPoint"/>
                    </mxGeometry>
                </mxCell>
                <mxCell id="6" value="24-bit TDM" style="edgeStyle=orthogonalEdgeStyle;rounded=0;orthogonalLoop=1;jettySize=auto;html=1;exitX=1;exitY=0.5;exitDx=0;exitDy=0;entryX=0;entryY=0.5;entryDx=0;entryDy=0;fontColor=none;noLabel=1;" parent="1" edge="1">
                    <mxGeometry relative="1" as="geometry">
                        <mxPoint y="322.5" as="sourcePoint"/>
                        <mxPoint x="110" y="327.5" as="targetPoint"/>
                        <mxPoint as="offset"/>
                        <Array as="points">
                            <mxPoint y="327.5"/>
                        </Array>
                    </mxGeometry>
                </mxCell>
                <mxCell id="8" value="24-bit TDM" style="edgeStyle=orthogonalEdgeStyle;rounded=0;orthogonalLoop=1;jettySize=auto;html=1;exitX=1;exitY=0.5;exitDx=0;exitDy=0;entryX=0;entryY=0.5;entryDx=0;entryDy=0;fontColor=none;noLabel=1;" parent="1" edge="1">
                    <mxGeometry relative="1" as="geometry">
                        <mxPoint x="450" y="322.5" as="sourcePoint"/>
                        <mxPoint x="560" y="327.5" as="targetPoint"/>
                        <mxPoint as="offset"/>
                        <Array as="points">
                            <mxPoint x="450" y="327.5"/>
                        </Array>
                    </mxGeometry>
                </mxCell>
            </root>
        </mxGraphModel>
    </diagram>
</mxfile>